# xmcd
#
# Track frame offsets:
#	150
#	29417
#	45211
#	61658
#	74095
#	87315
#	104316
#	116196
#	132639
#	147302
#	160035
#	169745
#	187634
#	203055
#	219866
#	231699
#	253083
#	268663
#	287018
#
# Disc length: 3953 seconds
#
# Revision: 1
# Processed by: cddbd v1.5.2PL0 Copyright (c) Steve Scherf et al.
# Submitted via: audiograbber 1.83.01
#
DISCID=1a0f6f13
DTITLE=Dinah Shore - Dinah all the way
DYEAR=1900
DGENRE=
TTITLE0=St.Louis blues - I got a man - Shake, rattle and roll - Let the good times
TTITLE0=roll - Boogie blues - Blues in the night - Dinella blues
TTITLE1=When day is done
TTITLE2=Music, maestra, please!
TTITLE3=Smoke gets in your eyes
TTITLE4=Somebody, womewhere
TTITLE5=Falling in love with love
TTITLE6=All the way
TTITLE7=Baia
TTITLE8=These foolish things
TTITLE9=Mountain high, valley low
TTITLE10=Roll on, Mississippi, roll on.
TTITLE11=When I fall in love
TTITLE12=Spring will be a little late this year
TTITLE13=It never entered my mind
TTITLE14=I can dream, can't I
TTITLE15=Bali Ha' I
TTITLE16=Tall hope
TTITLE17=My man's gone now
TTITLE18=Start the new year right
EXTD=
EXTT0=
EXTT1=
EXTT2=
EXTT3=
EXTT4=
EXTT5=
EXTT6=
EXTT7=
EXTT8=
EXTT9=
EXTT10=
EXTT11=
EXTT12=
EXTT13=
EXTT14=
EXTT15=
EXTT16=
EXTT17=
EXTT18=
PLAYORDER=
